# xmcd
# 
# Track frame offsets:
#     150
#     10120
#     31011
#     58720
#     83517
# 
# Disc length: 1325
# 
# Revision: 0
# Processed by: cddbd v1.5.2PL0 Copyright (c) Steve Scherf et al.
# Submitted via: BonkEnc v1.0.15
# 
DISCID=29052b05
DTITLE=Vspolox - The dusk
DYEAR=2007
DGENRE=Black Metal
TTITLE0=Solntsevorot Kres (intro)
TTITLE1=Soaring on the nightwings
TTITLE2=Into the majestic Eeriej
TTITLE3=The dusk
TTITLE4=By the forest path (outro)
EXTD=
EXTT0=
EXTT1=
EXTT2=
EXTT3=
EXTT4=
PLAYORDER=
